<svg width="165" height="52" viewBox="0 0 165 52" fill="none" xmlns="http://www.w3.org/2000/svg">
<g clip-path="url(#clip0_4382_127)">
<path d="M53.7728 10.5547C57.7288 10.5547 62.6528 12.5658 62.6528 17.8272C62.6528 21.8138 59.8728 23.9318 56.9448 24.7433L64.6848 35.2582H59.1928L52.0608 25.163H50.4928V35.2582H46.0728V10.5547H53.7768H53.7728ZM52.9528 21.4258C55.8408 21.4258 57.9808 20.4044 57.9808 17.9341C57.9808 15.7448 56.2328 14.2958 53.6648 14.2958H50.4888V21.4258H52.9488H52.9528Z" fill="#1F1646"/>
<path d="M69.5685 35.2621V10.5547H85.1525V14.2958H73.9925V20.6815H85.1525V24.4227H73.9925V31.517H85.1525V35.2581H69.5685V35.2621Z" fill="#1F1646"/>
<path d="M100.097 10.5547H103.769L113.217 35.2582H108.153L106.405 30.3887H96.7774L94.9934 35.2582H90.1454L100.093 10.5547H100.097ZM98.1374 26.7188H105.089L101.665 17.2254H101.629L98.1374 26.7188Z" fill="#1F1646"/>
<path d="M130.372 31.8374C132.296 31.8374 134.152 31.1644 135.756 29.9292L138.216 33.1082C135.864 34.767 133.152 35.6854 130.264 35.6854C122.776 35.6854 117.036 30.5666 117.036 22.9101C117.036 15.2536 122.992 10.1348 130.372 10.1348C133.048 10.1348 135.4 10.9463 137.648 12.324L135.544 15.7128C134.044 14.6519 132.264 13.9828 130.372 13.9828C125.38 13.9828 121.708 17.8308 121.708 22.9101C121.708 28.31 125.132 31.8414 130.372 31.8414V31.8374Z" fill="#1F1646"/>
<path d="M160.581 35.2621V24.4266H148.921V35.2621H144.501V10.5547H148.921V20.6815H160.581V10.5547H165.001V35.2582H160.581V35.2621Z" fill="#1F1646"/>
<path d="M52.0597 43.2676H52.8597V48.8061C52.8597 50.9716 51.4637 52.0009 49.5957 52.0009C47.4477 52.0009 46.0637 51.0231 46.0637 48.6121V43.2676H47.3797V48.6121C47.3797 50.5916 48.3957 51.2963 49.7517 51.2963C50.8837 51.2963 52.0557 50.6312 52.0557 48.9209V43.2637L52.0597 43.2676Z" fill="#1F1646"/>
<path d="M66.4206 51.9375L60.9286 44.6492V51.8702H60.2046V43.2676H61.4966L66.2766 49.6176V43.2676H67.0006V51.9375H66.4206Z" fill="#1F1646"/>
<path d="M76.1957 51.8702H74.8637V43.2676H76.1957V51.8702Z" fill="#1F1646"/>
<path d="M86.7517 51.9375L83.1557 43.2676H84.6197L87.3437 49.9937L90.0717 43.2676H90.8237L87.2037 51.9375H86.7557H86.7517Z" fill="#1F1646"/>
<path d="M97.2114 43.2676H102.187V43.9208H98.5394V47.2463H101.923V47.8995H98.5394V51.221H102.463V51.8742H97.2114V43.2715V43.2676Z" fill="#1F1646"/>
<path d="M111.975 47.9746H111.043V51.8741H109.711V43.2715H112.475C114.383 43.2715 115.543 44.0672 115.543 45.528C115.543 46.6484 114.739 47.6144 113.355 47.8875L116.227 51.8741H114.647L111.971 47.9746H111.975ZM111.043 43.9207V47.3214H112.847C113.491 47.3214 114.151 46.9057 114.151 45.5993C114.151 44.2929 113.411 43.9168 112.479 43.9168H111.043V43.9207Z" fill="#1F1646"/>
<path d="M124.252 45.1082C124.252 45.9277 124.648 46.3593 125.936 46.9689C127.544 47.7251 128.292 48.311 128.292 49.653C128.292 50.9951 127.16 52.0007 125.448 52.0007C123.868 52.0007 122.828 51.3752 122.668 49.7045H123.196C123.448 51.007 124.196 51.387 125.384 51.387C126.384 51.387 127.044 50.8803 127.044 49.9302C127.044 49.0553 126.66 48.6514 125.188 48.0259C123.688 47.3727 123.08 46.6958 123.08 45.4566C123.08 44.2175 124.056 43.1367 125.636 43.1367C126.9 43.1367 127.78 43.7741 127.98 45.2072H127.452C127.256 44.1502 126.596 43.7464 125.728 43.7464C124.86 43.7464 124.252 44.2927 124.252 45.1043V45.1082Z" fill="#1F1646"/>
<path d="M136.539 51.8702H135.207V43.2676H136.539V51.8702Z" fill="#1F1646"/>
<path d="M148.048 43.9208V51.8742H146.716V43.9208H143.568V43.2676H151.196V43.9208H148.048Z" fill="#1F1646"/>
<path d="M160.616 51.8702V47.9707L157.468 43.2676H158.944L161.592 47.1908L164.136 43.2676H165.004L161.948 47.8441V51.8702H160.616Z" fill="#1F1646"/>
<path d="M6.85955 22.926C7.69955 23.1081 8.26355 22.7162 8.34355 21.873C8.36755 21.6156 8.37155 21.3544 8.35555 21.0931C8.29555 20.2023 8.21155 19.3155 8.15955 18.4248C8.14355 18.1279 8.17155 17.8191 8.22355 17.5261C8.29155 17.1421 8.49155 17.0788 8.79155 17.3202C8.92355 17.4232 9.05555 17.5419 9.15555 17.6765C9.57955 18.2387 9.99555 18.8088 10.4115 19.3789C10.7915 19.9014 10.9755 20.4874 10.9995 21.1247C11.0435 22.2689 10.7395 23.318 10.0635 24.2404C9.37555 25.1786 8.47155 25.7329 7.26355 25.4241C6.77955 25.3014 6.29955 25.044 5.90355 24.7352C4.53955 23.6861 3.73155 22.2174 2.93555 20.6655C3.56755 21.1129 4.12355 21.5325 4.69955 21.9165C5.36355 22.3599 6.06355 22.7439 6.85955 22.9181V22.926Z" fill="#FF8300"/>
<path d="M19.0156 27.7676C18.4036 27.4746 17.8396 27.051 17.3116 26.6235C15.7836 25.3843 14.4276 23.9829 13.4316 22.2806C12.4996 20.697 12.0516 19.0184 12.5076 17.1855C12.7996 16.0097 13.3996 14.9883 14.1276 14.0342C14.9636 12.9416 15.7476 11.8291 16.1796 10.4989C16.8116 8.54719 17.0516 6.53607 17.1476 4.50516C17.2196 3.01662 17.2236 1.52412 17.2596 0.0395362C17.2756 0.0276596 17.2956 0.0157829 17.3156 0.00390625C17.7116 1.06093 18.1316 2.11003 18.4996 3.17893C19.2916 5.49093 19.8436 7.85834 19.9476 10.3089C20.0236 12.1458 19.8436 13.9471 19.0076 15.6178C18.4916 16.6471 18.0916 17.6922 18.0796 18.8522C18.0636 20.1982 18.4076 21.4136 19.4596 22.3439C19.9596 22.7873 20.5516 22.9734 21.2236 22.7992C21.9396 22.6092 22.4036 22.1143 22.7756 21.5244C23.4276 20.4991 23.7316 19.355 23.9356 18.1792C24.0916 17.2845 24.2076 16.3818 24.3596 15.4871C24.3916 15.2892 24.4836 15.1031 24.5476 14.9091C24.5916 14.9131 24.6356 14.917 24.6796 14.921C24.7196 15.2219 24.7836 15.5227 24.7956 15.8236C24.8956 18.1554 24.6556 20.4595 24.1356 22.7319C23.8076 24.1729 23.3876 25.5823 22.4836 26.7858C21.5956 27.9655 20.4836 28.4802 19.0156 27.7755V27.7676Z" fill="#FF8300"/>
<path d="M32.2725 30.0636C31.6965 28.9392 30.9245 27.997 29.7325 27.4586C28.8885 27.0786 28.0125 27.2963 27.4405 28.0208C26.9765 28.6146 26.7525 29.3074 26.5965 30.02C26.2565 31.5719 26.2725 33.1436 26.3485 34.7192C26.3485 34.735 26.3725 34.7548 26.3605 34.739C26.6925 33.9156 27.0085 33.0723 27.3685 32.2489C27.6245 31.663 27.9365 31.0968 28.4085 30.6455C28.9605 30.119 29.4485 30.1507 29.8805 30.7762C30.3965 31.5165 30.6965 32.3637 30.8485 33.2267C31.0365 34.3114 30.8045 35.3843 30.3045 36.374C29.4685 38.0407 28.1725 39.2759 26.5365 40.1587C25.4005 40.7724 24.2205 40.8792 23.0525 40.2141C22.3245 39.7985 21.7645 39.1928 21.3005 38.5079C20.0685 36.7105 19.3805 34.6796 18.7925 32.6131C18.5685 31.8332 18.3885 31.0414 17.9685 30.3328C16.8765 28.4958 15.2005 27.4982 13.1325 27.1142C10.4965 26.6233 8.04052 27.2052 5.74452 28.5196C3.96452 29.5331 2.54452 30.9345 1.38852 32.6091C0.808519 33.4484 0.364519 34.355 0.144519 35.3526C-0.291481 37.2767 0.272519 38.9433 1.50852 40.424C2.40452 41.4968 3.51252 42.3203 4.72052 43.017C5.21252 43.2981 5.72452 43.5475 6.22452 43.8128C6.24052 43.793 6.25652 43.7692 6.27252 43.7494C6.25652 43.6703 6.24452 43.595 6.22052 43.5238C5.84452 42.1857 5.54452 40.8317 5.40052 39.4461C5.23652 37.8032 5.23252 36.1761 5.88052 34.6123C6.49252 33.1277 7.74052 32.1024 9.48452 32.0945C11.4765 32.0866 13.0365 32.9773 14.2725 34.4777C14.8365 35.1586 15.0845 35.9821 15.3645 36.8095C16.4205 39.8935 18.4405 42.1461 21.4965 43.3971C23.7845 44.3354 26.0325 44.1453 28.1605 42.8626C29.5405 42.0273 30.6205 40.8792 31.4965 39.5411C31.9285 38.88 32.9805 36.9837 33.1165 34.8182C33.2445 32.7873 32.4765 30.4753 32.2685 30.0715L32.2725 30.0636Z" fill="#FF8300"/>
<path d="M15.9058 48.2237C13.1258 48.0455 10.5578 47.2102 8.19385 45.6504C8.24985 45.8444 8.28985 45.9988 8.34585 46.1492C8.81785 47.3844 9.69385 48.3028 10.7498 49.055C12.2338 50.1121 13.9018 50.7613 15.6698 51.1651C16.8578 51.4383 18.0418 51.4383 19.2138 51.0859C20.8778 50.5871 22.1218 49.538 23.0938 48.1445C23.3938 47.709 23.6458 47.2339 23.9218 46.7826C23.9058 46.7668 23.8858 46.7549 23.8658 46.7391C21.3298 47.8436 18.6858 48.4058 15.9058 48.2276V48.2237Z" fill="#1F1646"/>
</g>
<defs>
<clipPath id="clip0_4382_127">
<rect width="165" height="52" fill="white"/>
</clipPath>
</defs>
</svg>
