<svg width="413" height="132" viewBox="0 0 413 132" fill="none" xmlns="http://www.w3.org/2000/svg">
<path d="M134.668 26.7099C144.558 26.7099 156.868 31.7899 156.868 45.0799C156.868 55.1499 149.918 60.4999 142.598 62.5499L161.948 89.1099H148.218L130.388 63.6099H126.468V89.1099H115.418V26.7099H134.678H134.668ZM132.618 54.1599C139.838 54.1599 145.188 51.5799 145.188 45.3399C145.188 39.8099 140.818 36.1499 134.398 36.1499H126.458V54.1599H132.608H132.618Z" fill="white"/>
<path d="M174.168 89.1099V26.7099H213.128V36.1599H185.228V52.2899H213.128V61.7399H185.228V79.6599H213.128V89.1099H174.168Z" fill="white"/>
<path d="M250.488 26.7099H259.668L283.288 89.1099H270.628L266.258 76.8099H242.188L237.728 89.1099H225.608L250.478 26.7099H250.488ZM245.588 67.5399H262.968L254.408 43.5599H254.318L245.588 67.5399Z" fill="white"/>
<path d="M326.178 80.4699C330.988 80.4699 335.628 78.7699 339.638 75.6499L345.788 83.6799C339.908 87.8699 333.128 90.1899 325.908 90.1899C307.188 90.1899 292.838 77.2599 292.838 57.9199C292.838 38.5799 307.728 25.6499 326.178 25.6499C332.868 25.6499 338.748 27.6999 344.368 31.1799L339.108 39.7399C335.358 37.0599 330.908 35.3699 326.178 35.3699C313.698 35.3699 304.518 45.0899 304.518 57.9199C304.518 71.5599 313.078 80.4799 326.178 80.4799V80.4699Z" fill="white"/>
<path d="M401.698 89.1099V61.7399H372.548V89.1099H361.498V26.7099H372.548V52.2899H401.698V26.7099H412.748V89.1099H401.698Z" fill="white"/>
<path d="M130.398 109.34H132.398V123.33C132.398 128.8 128.908 131.4 124.238 131.4C118.868 131.4 115.408 128.93 115.408 122.84V109.34H118.698V122.84C118.698 127.84 121.238 129.62 124.628 129.62C127.458 129.62 130.388 127.94 130.388 123.62V109.33L130.398 109.34Z" fill="white"/>
<path d="M166.288 131.23L152.558 112.82V131.06H150.748V109.33H153.978L165.928 125.37V109.33H167.738V131.23H166.288Z" fill="white"/>
<path d="M190.728 131.07H187.398V109.34H190.728V131.07Z" fill="white"/>
<path d="M217.128 131.23L208.138 109.33H211.798L218.608 126.32L225.428 109.33H227.308L218.258 131.23H217.138H217.128Z" fill="white"/>
<path d="M243.278 109.34H255.718V110.99H246.598V119.39H255.058V121.04H246.598V129.43H256.408V131.08H243.278V109.35V109.34Z" fill="white"/>
<path d="M280.188 121.22H277.858V131.07H274.528V109.34H281.438C286.208 109.34 289.108 111.35 289.108 115.04C289.108 117.87 287.098 120.31 283.638 121L290.818 131.07H286.868L280.178 121.22H280.188ZM277.848 110.98V119.57H282.358C283.968 119.57 285.618 118.52 285.618 115.22C285.618 111.92 283.768 110.97 281.438 110.97H277.848V110.98Z" fill="white"/>
<path d="M310.878 113.98C310.878 116.05 311.868 117.14 315.088 118.68C319.108 120.59 320.978 122.07 320.978 125.46C320.978 128.85 318.148 131.39 313.868 131.39C309.918 131.39 307.318 129.81 306.918 125.59H308.238C308.868 128.88 310.738 129.84 313.708 129.84C316.208 129.84 317.858 128.56 317.858 126.16C317.858 123.95 316.898 122.93 313.218 121.35C309.468 119.7 307.948 117.99 307.948 114.86C307.948 111.73 310.388 109 314.338 109C317.498 109 319.698 110.61 320.198 114.23H318.878C318.388 111.56 316.738 110.54 314.568 110.54C312.398 110.54 310.878 111.92 310.878 113.97V113.98Z" fill="white"/>
<path d="M341.598 131.07H338.268V109.34H341.598V131.07Z" fill="white"/>
<path d="M370.368 110.98V131.07H367.038V110.98H359.168V109.33H378.238V110.98H370.368Z" fill="white"/>
<path d="M401.788 131.07V121.22L393.918 109.34H397.608L404.228 119.25L410.588 109.34H412.758L405.118 120.9V131.07H401.788Z" fill="white"/>
<path d="M17.3977 57.9599C19.4977 58.4199 20.9077 57.4299 21.1077 55.2999C21.1677 54.6499 21.1777 53.9899 21.1377 53.3299C20.9877 51.0799 20.7777 48.8399 20.6477 46.5899C20.6077 45.8399 20.6777 45.0599 20.8077 44.3199C20.9777 43.3499 21.4777 43.1899 22.2277 43.7999C22.5577 44.0599 22.8877 44.3599 23.1377 44.6999C24.1977 46.1199 25.2377 47.5599 26.2777 48.9999C27.2277 50.3199 27.6877 51.7999 27.7477 53.4099C27.8577 56.2999 27.0977 58.9499 25.4077 61.2799C23.6877 63.6499 21.4277 65.0499 18.4077 64.2699C17.1977 63.9599 15.9977 63.3099 15.0077 62.5299C11.5977 59.8799 9.57771 56.1699 7.58771 52.2499C9.16771 53.3799 10.5577 54.4399 11.9977 55.4099C13.6577 56.5299 15.4077 57.4999 17.3977 57.9399V57.9599Z" fill="#FF8300"/>
<path d="M47.7877 70.1799C46.2577 69.4399 44.8477 68.3699 43.5277 67.2899C39.7077 64.1599 36.3177 60.6199 33.8277 56.3199C31.4977 52.3199 30.3777 48.0799 31.5177 43.4499C32.2477 40.4799 33.7477 37.8999 35.5677 35.4899C37.6577 32.7299 39.6177 29.9199 40.6977 26.5599C42.2777 21.6299 42.8777 16.5499 43.1177 11.4199C43.2977 7.65992 43.3077 3.88992 43.3977 0.139923C43.4377 0.109923 43.4877 0.0799268 43.5377 0.0499268C44.5277 2.71993 45.5777 5.36992 46.4977 8.06992C48.4777 13.9099 49.8577 19.8899 50.1177 26.0799C50.3077 30.7199 49.8577 35.2699 47.7677 39.4899C46.4777 42.0899 45.4777 44.7299 45.4477 47.6599C45.4077 51.0599 46.2677 54.1299 48.8977 56.4799C50.1477 57.5999 51.6277 58.0699 53.3077 57.6299C55.0977 57.1499 56.2577 55.8999 57.1877 54.4099C58.8177 51.8199 59.5777 48.9299 60.0877 45.9599C60.4777 43.6999 60.7677 41.4199 61.1477 39.1599C61.2277 38.6599 61.4577 38.1899 61.6177 37.6999C61.7277 37.7099 61.8377 37.7199 61.9477 37.7299C62.0477 38.4899 62.2077 39.2499 62.2377 40.0099C62.4877 45.8999 61.8877 51.7199 60.5877 57.4599C59.7677 61.0999 58.7177 64.6599 56.4577 67.6999C54.2377 70.6799 51.4577 71.9799 47.7877 70.1999V70.1799Z" fill="#FF8300"/>
<path d="M80.9277 75.9899C79.4877 73.1499 77.5577 70.7699 74.5777 69.4099C72.4677 68.4499 70.2777 68.9999 68.8477 70.8299C67.6877 72.3299 67.1277 74.0799 66.7377 75.8799C65.8877 79.7999 65.9277 83.7699 66.1177 87.7499C66.1177 87.7899 66.1777 87.8399 66.1477 87.7999C66.9777 85.7199 67.7677 83.5899 68.6677 81.5099C69.3077 80.0299 70.0877 78.5999 71.2677 77.4599C72.6477 76.1299 73.8677 76.2099 74.9477 77.7899C76.2377 79.6599 76.9877 81.7999 77.3677 83.9799C77.8377 86.7199 77.2577 89.4299 76.0077 91.9299C73.9177 96.1399 70.6777 99.2599 66.5877 101.49C63.7477 103.04 60.7977 103.31 57.8777 101.63C56.0577 100.58 54.6577 99.0499 53.4977 97.3199C50.4177 92.7799 48.6977 87.6499 47.2277 82.4299C46.6677 80.4599 46.2177 78.4599 45.1677 76.6699C42.4377 72.0299 38.2477 69.5099 33.0777 68.5399C26.4877 67.2999 20.3477 68.7699 14.6077 72.0899C10.1577 74.6499 6.6077 78.1899 3.7177 82.4199C2.2677 84.5399 1.1577 86.8299 0.607695 89.3499C-0.482305 94.2099 0.927699 98.4199 4.0177 102.16C6.2577 104.87 9.0277 106.95 12.0477 108.71C13.2777 109.42 14.5577 110.05 15.8077 110.72C15.8477 110.67 15.8877 110.61 15.9277 110.56C15.8877 110.36 15.8577 110.17 15.7977 109.99C14.8577 106.61 14.1077 103.19 13.7477 99.6899C13.3377 95.5399 13.3277 91.4299 14.9477 87.4799C16.4777 83.7299 19.5977 81.1399 23.9577 81.1199C28.9377 81.0999 32.8377 83.3499 35.9277 87.1399C37.3377 88.8599 37.9577 90.9399 38.6577 93.0299C41.2977 100.82 46.3477 106.51 53.9877 109.67C59.7077 112.04 65.3277 111.56 70.6477 108.32C74.0977 106.21 76.7977 103.31 78.9877 99.9299C80.0677 98.2599 82.6977 93.4699 83.0377 87.9999C83.3577 82.8699 81.4377 77.0299 80.9177 76.0099L80.9277 75.9899Z" fill="#FF8300"/>
<path d="M40.0077 121.86C33.0577 121.41 26.6377 119.3 20.7277 115.36C20.8677 115.85 20.9677 116.24 21.1077 116.62C22.2877 119.74 24.4777 122.06 27.1177 123.96C30.8277 126.63 34.9977 128.27 39.4177 129.29C42.3877 129.98 45.3477 129.98 48.2777 129.09C52.4377 127.83 55.5477 125.18 57.9777 121.66C58.7277 120.56 59.3577 119.36 60.0477 118.22C60.0077 118.18 59.9577 118.15 59.9077 118.11C53.5677 120.9 46.9577 122.32 40.0077 121.87V121.86Z" fill="white"/>
</svg>
